<svg xmlns="http://www.w3.org/2000/svg" width="200" height="60" viewBox="0 0 200 60">
  <!-- Hanwha flame mark -->
  <g transform="translate(10, 5)">
    <path d="M25 5 C20 15, 10 20, 12 32 C13 38, 18 42, 25 45 C32 42, 37 38, 38 32 C40 20, 30 15, 25 5Z" fill="#F37021"/>
    <path d="M25 15 C22 22, 17 25, 18 31 C19 35, 22 38, 25 39 C28 38, 31 35, 32 31 C33 25, 28 22, 25 15Z" fill="#FCB040"/>
  </g>
  <!-- HANWHA text -->
  <text x="55" y="28" font-family="Arial, Helvetica, sans-serif" font-size="18" font-weight="700" fill="#1a1a1a" letter-spacing="2">HANWHA</text>
  <!-- 한화케미칼 -->
  <text x="55" y="46" font-family="'Noto Sans KR', sans-serif" font-size="10" fill="#666" letter-spacing="1">한화케미칼</text>
</svg>
