<?xml version="1.0" encoding="UTF-8"?><svg id="Layer_1" xmlns="http://www.w3.org/2000/svg" viewBox="0 0 371.03 56.69"><defs><style>.cls-1{fill:#f89b6c;}.cls-2{fill:#f37321;}.cls-3{fill:#fbb584;}</style></defs><g><path class="cls-3" d="M23.08,29.06c-.81-7.37,6.92-13.28,17.25-13.2,10.34,.08,19.38,6.12,20.19,13.48,.81,7.38-6.91,13.28-17.25,13.2-10.34-.08-19.38-6.11-20.19-13.48m39.37,2.28c-.94-9.14-11.34-16.62-23.24-16.72-11.91-.1-20.8,7.23-19.86,16.37,.94,9.14,11.34,16.63,23.24,16.73,11.9,.09,20.8-7.23,19.86-16.38"/><path class="cls-1" d="M44.48,47.9c-5.86,6.13-15.27,6.64-21.02,1.14-5.75-5.5-5.65-14.92,.22-21.04,5.86-6.12,15.28-6.63,21.01-1.14,5.74,5.5,5.65,14.92-.22,21.04M22.77,27.8c-6.81,7.12-6.92,18.07-.25,24.46,6.67,6.39,17.62,5.8,24.43-1.32,6.82-7.12,6.93-18.07,.25-24.46-6.67-6.39-17.61-5.8-24.43,1.32"/><path class="cls-2" d="M23.39,4.88c12.19-4.57,24.25,.05,26.93,10.32,2.68,10.28-5.03,22.3-17.22,26.87-12.19,4.58-24.25-.05-26.93-10.32C3.48,21.48,11.2,9.45,23.39,4.88m-11.33,3.92C-.58,18.82-3.8,33.33,4.87,41.21c8.67,7.89,25.96,6.16,38.61-3.86,12.65-10.01,15.87-24.52,7.19-32.41C42-2.94,24.71-1.21,12.06,8.8"/></g><g><g><path d="M91.51,17.07v22.62h-3.54v-11.93h-13.4v11.93h-3.54V17.07h3.54v7.59h13.4v-7.59h3.54Z"/><path d="M100.02,39.68c-1.65,0-2.98-.44-3.93-1.39-1-.92-1.48-2.1-1.48-3.57v-1.21c0-1.48,.47-2.66,1.48-3.6,.94-.94,2.27-1.42,3.93-1.42h9.24v-.09c0-1.8-1-2.72-2.98-2.72h-10.27v-3.01h10.22c2.13,0,3.75,.56,4.87,1.62,1.12,1.06,1.71,2.57,1.71,4.55v5.99c0,1.54-.53,2.75-1.56,3.63-.94,.83-2.27,1.21-3.99,1.21h-7.23Zm6.47-8.18h-5.61c-1.83,0-2.72,.77-2.72,2.3v.56c0,1.54,.89,2.27,2.72,2.27h5.61c1.83,0,2.78-.74,2.78-2.27v-.56c0-1.54-.94-2.3-2.78-2.3Z"/><path d="M123.16,22.68h3.48c2.18,0,3.93,.65,5.2,1.92,1.24,1.3,1.89,3.07,1.89,5.34v9.74h-3.54v-9.57c0-1.42-.3-2.45-.83-3.1-.71-.83-1.68-1.27-2.98-1.27h-3.01c-1.27,0-2.24,.44-2.95,1.27-.53,.65-.77,1.68-.77,3.1v9.57h-3.54v-9.74c0-2.27,.62-4.04,1.89-5.34,1.24-1.27,2.98-1.92,5.17-1.92Z"/><path d="M150.06,37.41c-1.27,1.54-2.83,2.27-4.69,2.27h-2.19c-1.98,0-3.54-.62-4.69-1.86-1.12-1.15-1.65-2.8-1.65-4.93v-10.22h3.51v10.25c0,1.24,.27,2.16,.8,2.72,.59,.65,1.39,.97,2.39,.97h1.54c1,0,1.8-.32,2.42-.97,.53-.56,.83-1.48,.83-2.72v-10.25h3.48v10.25c0,1.24,.27,2.16,.8,2.72,.59,.65,1.39,.97,2.39,.97h1.54c1,0,1.8-.32,2.42-.97,.53-.56,.83-1.48,.83-2.72v-10.25h3.51v10.22c0,2.13-.59,3.78-1.71,4.93-1.18,1.24-2.75,1.86-4.72,1.86h-2.16c-1.83,0-3.4-.74-4.64-2.27Z"/><path d="M173.68,25.75c-1.27,0-2.24,.44-2.95,1.27-.53,.65-.77,1.68-.77,3.1v9.57h-3.54V17.01h3.54v6.7c1-.68,2.18-1.03,3.51-1.03h3.48c2.18,0,3.93,.65,5.2,1.92,1.24,1.3,1.89,3.07,1.89,5.34v9.74h-3.54v-9.57c0-1.42-.3-2.45-.83-3.1-.71-.83-1.68-1.27-2.98-1.27h-3.01Z"/><path d="M192.37,39.68c-1.65,0-2.98-.44-3.93-1.39-1-.92-1.48-2.1-1.48-3.57v-1.21c0-1.48,.47-2.66,1.48-3.6,.94-.94,2.27-1.42,3.93-1.42h9.24v-.09c0-1.8-1-2.72-2.98-2.72h-10.27v-3.01h10.22c2.13,0,3.75,.56,4.87,1.62,1.12,1.06,1.71,2.57,1.71,4.55v5.99c0,1.54-.53,2.75-1.56,3.63-.94,.83-2.27,1.21-3.99,1.21h-7.23Zm6.47-8.18h-5.61c-1.83,0-2.72,.77-2.72,2.3v.56c0,1.54,.89,2.27,2.72,2.27h5.61c1.83,0,2.78-.74,2.78-2.27v-.56c0-1.54-.94-2.3-2.78-2.3Z"/></g><g><path d="M233.68,17.07v3.08h-12.23c-2.25,0-3.37,.86-3.37,2.55v1.54c0,1.69,1.1,2.52,3.35,2.52h6.57c2.19,0,3.85,.5,4.97,1.48,1.18,1.04,1.78,2.37,1.78,4v2.1c0,1.63-.59,2.96-1.78,3.97-1.12,.98-2.78,1.45-5,1.45h-12.61v-3.08h12.43c2.25,0,3.37-.83,3.37-2.52v-1.81c0-1.69-1.12-2.55-3.37-2.55h-6.57c-2.22,0-3.88-.47-4.97-1.45-1.18-1.01-1.75-2.34-1.75-3.97v-1.84c0-1.63,.56-2.96,1.75-4,1.1-.98,2.75-1.48,4.97-1.48h12.46Z"/><path d="M249.86,39.75h-5.24c-2.13,0-3.79-.62-4.97-1.83-1.21-1.18-1.81-2.87-1.81-5.09v-3.17c0-2.22,.59-3.94,1.81-5.12,1.18-1.18,2.84-1.81,4.97-1.84h5.24c2.13,.03,3.79,.65,5,1.84,1.18,1.18,1.81,2.9,1.81,5.12v3.17c0,2.22-.62,3.91-1.81,5.09-1.21,1.21-2.87,1.83-5,1.83Zm-.27-3.08c1.24,0,2.19-.38,2.78-1.15,.47-.65,.74-1.6,.74-2.87v-2.78c0-1.27-.27-2.25-.74-2.9-.59-.77-1.54-1.18-2.78-1.18h-4.74c-1.24,0-2.16,.41-2.75,1.18-.47,.65-.71,1.63-.71,2.9v2.78c0,1.27,.24,2.22,.71,2.87,.59,.77,1.51,1.15,2.75,1.15h4.74Z"/><path d="M260.07,39.75V17.02h3.61v22.73h-3.61Z"/><path d="M274.22,39.75c-2.19,0-3.94-.62-5.18-1.92-1.27-1.24-1.89-3.02-1.89-5.3v-9.83h3.55v9.62c0,1.42,.24,2.46,.77,3.11,.71,.83,1.69,1.24,2.96,1.24h3.02c1.3,0,2.28-.41,2.99-1.24,.53-.65,.83-1.69,.83-3.11v-9.62h3.55v9.83c0,2.28-.65,4.06-1.89,5.3-1.27,1.3-3.02,1.92-5.21,1.92h-3.49Z"/><path d="M295.97,22.7h5.33v2.99h-5.33v14.06h-3.58v-14.06h-5.33v-2.99h5.33v-3.85h3.58v3.85Z"/><path d="M308.05,19.27c0,.65-.24,1.18-.68,1.57-.47,.41-1.04,.59-1.69,.59s-1.18-.18-1.6-.59c-.47-.38-.68-.92-.68-1.57s.21-1.18,.68-1.6c.41-.38,.95-.59,1.6-.59s1.21,.21,1.69,.59c.44,.41,.68,.95,.68,1.6Zm-4.14,20.48V22.7h3.61v17.05h-3.61Z"/><path d="M322.94,39.75h-5.24c-2.13,0-3.79-.62-4.97-1.83-1.21-1.18-1.81-2.87-1.81-5.09v-3.17c0-2.22,.59-3.94,1.81-5.12,1.18-1.18,2.84-1.81,4.97-1.84h5.24c2.13,.03,3.79,.65,5,1.84,1.18,1.18,1.81,2.9,1.81,5.12v3.17c0,2.22-.62,3.91-1.81,5.09-1.21,1.21-2.87,1.83-5,1.83Zm-.27-3.08c1.24,0,2.19-.38,2.78-1.15,.47-.65,.74-1.6,.74-2.87v-2.78c0-1.27-.27-2.25-.74-2.9-.59-.77-1.54-1.18-2.78-1.18h-4.74c-1.24,0-2.16,.41-2.75,1.18-.47,.65-.71,1.63-.71,2.9v2.78c0,1.27,.24,2.22,.71,2.87,.59,.77,1.51,1.15,2.75,1.15h4.74Z"/><path d="M339.92,22.7h3.49c2.19,0,3.94,.65,5.21,1.92,1.24,1.3,1.89,3.08,1.89,5.36v9.77h-3.55v-9.59c0-1.42-.3-2.46-.83-3.11-.71-.83-1.69-1.27-2.99-1.27h-3.02c-1.27,0-2.25,.44-2.96,1.27-.53,.65-.77,1.69-.77,3.11v9.59h-3.55v-9.77c0-2.28,.62-4.06,1.89-5.36,1.24-1.27,2.99-1.92,5.18-1.92Z"/><path d="M365.14,29.71c1.89,0,3.32,.3,4.2,.89,1.12,.77,1.69,1.92,1.69,3.52v1.27c0,1.6-.56,2.75-1.69,3.49-.89,.59-2.31,.86-4.23,.86h-11.31v-3.08h11.31c1.54,0,2.34-.53,2.34-1.6v-.68c0-1.07-.8-1.63-2.34-1.63h-5.86c-1.89,0-3.29-.27-4.17-.86-1.12-.74-1.66-1.89-1.66-3.49v-1.3c0-1.6,.53-2.78,1.66-3.52,.89-.59,2.28-.89,4.17-.89h10.83v3.08h-10.78c-1.54,0-2.31,.56-2.31,1.63v.71c0,1.07,.74,1.6,2.28,1.6h5.86Z"/></g></g></svg>