<svg xmlns="http://www.w3.org/2000/svg" viewBox="0 0 280 60" fill="none">
  <!-- Hyundai-style stylized H mark (oval + slanted H) -->
  <path d="M30 12c-12 0-22 5.5-22 14s10 14 22 14 22-5.5 22-14-10-14-22-14zm0 22c-9 0-16-3.7-16-8.4S21 17.2 30 17.2s16 3.7 16 8.4S39 34 30 34z" fill="#002C5F"/>
  <path d="M19 25.6c0-3 4-5.6 11-5.6s11 2.6 11 5.6S37 31.2 30 31.2s-11-2.6-11-5.6z" fill="#002C5F" opacity="0.45"/>
  <!-- Wordmark — 두 줄 -->
  <text x="65" y="29" font-family="Arial, Helvetica, sans-serif" font-weight="700" font-size="20" fill="#002C5F" letter-spacing="0.5">HYUNDAI</text>
  <text x="65" y="48" font-family="Arial, Helvetica, sans-serif" font-weight="500" font-size="13" fill="#666" letter-spacing="2">POWERTECH</text>
</svg>
