<svg xmlns="http://www.w3.org/2000/svg" width="164.543" height="52" viewBox="0 0 164.543 52"><defs><style>.a,.b{fill-rule:evenodd;}.b{fill:#d82a28;}</style></defs><g transform="translate(-1436 -948.546)"><path class="a" d="M158.145,189.46h10.631a.61.61,0,0,1,.56.783l-.448,2.574a.96.96,0,0,1-.783.671H150.76a.629.629,0,0,1-.56-.671l4.141-22.046a.817.817,0,0,1,.783-.671h5.931a.68.68,0,0,1,.671.783l-3.581,18.577Z" transform="translate(1350.976 792.917)"/><path class="a" d="M179.978,183.317l-1.231,6.155h11.191a.61.61,0,0,1,.56.783l-.448,2.574c-.112.336-.448.783-.783.671H171.361a.566.566,0,0,1-.56-.671l4.029-22.046a.961.961,0,0,1,.9-.783h17.681a.493.493,0,0,1,.448.671l-.448,2.462a.828.828,0,0,1-.783.783H181.545l-1.007,5.6h9.512a.566.566,0,0,1,.56.671l-.448,2.462a.745.745,0,0,1-.783.671h-9.4Z" transform="translate(1353.425 792.906)"/><path class="a" d="M208.614,187.669h-8.5l-3.133,5.26a1.136,1.136,0,0,1-1.119.56h-3.8c-.448.112-.56-.336-.448-.671l13.429-22.046c.336-.56.56-.671,1.343-.671H210.4a.74.74,0,0,1,.783.671l5.819,22.046c0,.224-.112.671-.56.671H210.74a.748.748,0,0,1-.783-.671l-1.343-5.148Zm-.783-3.022-1.79-7.386-4.364,7.386Z" transform="translate(1355.897 792.917)"/><path class="a" d="M221.932,171.119c.112-.671.448-.783.9-.9,1.231-.112,5.148-.224,7.722-.224,2.8,0,12.086,0,10.855,7.274-.783,4.812-4.141,5.483-6.6,6.043l5.26,9.624c.112.224.112.56-.448.56h-5.819a1.377,1.377,0,0,1-1.119-.56l-4.029-8.5c-.224-.224-.336-.336-.56-.336h-1.343l-1.567,8.729a.838.838,0,0,1-.783.671h-5.931c-.448,0-.671-.224-.56-.671l4.029-21.71Zm5.372,10.407c1.567.112,6.491.224,7.274-4.029.783-4.029-2.8-4.364-4.7-4.364a5.139,5.139,0,0,0-1.119.112l-1.455,8.281Z" transform="translate(1359.028 792.906)"/><path class="b" d="M123.116,157c-14.324,0-28.2,11.556-30.775,26-2.462,14.222,7.05,26,21.486,26a30.658,30.658,0,0,0,20.031-7.889H109.575c-.448.111-.9-.333-.783-1l6.6-35.556a1.282,1.282,0,0,1,1.343-1h9.736a.927.927,0,0,1,1.007,1.222l-5.707,30.111h17.905a28.811,28.811,0,0,0,4.924-11.778C147.288,168.556,137.664,157,123.116,157Z" transform="translate(1344.046 791.546)"/></g></svg>