<?xml version="1.0" encoding="utf-8"?>
<!-- Generator: Adobe Illustrator 13.0.0, SVG Export Plug-In . SVG Version: 6.00 Build 14948)  -->
<!DOCTYPE svg PUBLIC "-//W3C//DTD SVG 1.1//EN" "http://www.w3.org/Graphics/SVG/1.1/DTD/svg11.dtd">
<svg version="1.1" id="Layer_1" xmlns="http://www.w3.org/2000/svg" xmlns:xlink="http://www.w3.org/1999/xlink" x="0px" y="0px"
	 width="192.409px" height="115.51px" viewBox="0 0 192.409 115.51" enable-background="new 0 0 192.409 115.51"
	 xml:space="preserve">
<g>
	<g>
		<g>
			<path d="M170.614,35.775c-13.398-7.701-32.052-13.278-53.381-15.532l9.397-17.792l0.247-0.48c0.037-0.099,0.06-0.206,0.06-0.313
				c0-0.43-0.32-0.782-0.723-0.825l-0.566-0.057c-5.652-0.467-11.456-0.732-17.369-0.773C107.763,0,107.246,0,106.734,0
				c-29.4,0-55.979,5.7-75.268,14.883C12.196,24.059,0.124,36.742,0.027,50.85v0.016c0.014,11.037,8.245,21.034,21.772,28.815
				c13.312,7.655,31.814,13.206,52.979,15.491c0.133,0.016,0.183,0.016,0.247,0.139c0.064,0.131-0.069,0.336-0.069,0.336
				l-9.402,17.782c-0.055,0.114-0.087,0.243-0.087,0.378c0,0.43,0.32,0.784,0.727,0.825c0,0,11.652,0.779,17.94,0.823
				c0.517,0.002,1.034,0.007,1.55,0.007c29.399-0.005,55.979-5.7,75.268-14.883c19.266-9.181,31.343-21.859,31.435-35.969v-0.015
				C192.378,53.559,184.146,43.561,170.614,35.775z M140.469,77.625c-11.276,5.146-26.916,8.346-44.188,8.346
				s-32.908-3.199-44.185-8.346c-11.3-5.149-18.132-12.229-18.109-19.817c-0.022-7.589,6.81-14.668,18.109-19.817
				c11.277-5.147,26.912-8.346,44.185-8.346s32.912,3.199,44.188,8.346c11.296,5.149,18.133,12.229,18.109,19.817
				C158.602,65.396,151.765,72.476,140.469,77.625z"/>
		</g>
		<g>
			<defs>
				<path id="SVGID_1_" d="M108.275,0.942c-0.517-0.004-1.029-0.007-1.541-0.007l0,0c-29.281,0-55.754,5.689-74.883,14.798l0,0
					C12.704,24.845,0.992,37.357,0.942,50.854l0,0v0.011C0.933,61.374,8.844,71.151,22.248,78.864l0,0
					c13.39,7.7,32.194,13.294,53.71,15.488l0,0l0.686,0.069l-9.928,19.014c0,0-0.073,0.19,0.004,0.298
					c0.06,0.075,0.096,0.123,0.206,0.123c5.625,0.465,11.081,0.405,16.961,0.446l0,0c0.517,0.002,1.029,0.005,1.541,0.002l0,0
					c29.281,0.003,55.073-5.588,74.202-14.695l0,0c18.933-9.011,31.412-24.436,31.453-35.05l0.869,0.048l-0.869-0.048
					c0.01-10.509-7.513-20.254-20.912-27.964l0,0c-13.39-7.701-32.198-13.296-53.715-15.491l0,0l-0.681-0.068l10.188-19.294
					C120.211,1.255,114.303,0.983,108.275,0.942L108.275,0.942z M126.631,2.451l-9.397,17.792
					c21.329,2.254,39.982,7.831,53.381,15.532l0,0c13.532,7.786,21.764,17.784,21.772,28.821l0,0v0.015
					c-0.092,14.109-12.169,26.788-31.435,35.969l0,0c-19.289,9.183-45.868,14.878-75.268,14.883l0,0
					c-0.517,0-1.034-0.005-1.55-0.007l0,0c-6.288-0.044-17.94-0.823-17.94-0.823c-0.407-0.041-0.727-0.396-0.727-0.825
					c0-0.135,0.032-0.264,0.087-0.378l9.402-17.782c0,0,0.133-0.205,0.069-0.336c-0.064-0.123-0.114-0.123-0.247-0.139
					c-21.164-2.285-39.667-7.836-52.979-15.491l0,0C8.272,71.899,0.041,61.902,0.027,50.866l0,0V50.85
					c0.096-14.107,12.169-26.791,31.439-35.967l0,0C50.756,5.7,77.334,0,106.734,0l0,0c0.512,0,1.028,0,1.545,0.002l0,0
					c5.913,0.041,11.717,0.306,17.369,0.773l0.566,0.057c0.402,0.043,0.723,0.396,0.723,0.825c0,0.107-0.022,0.215-0.06,0.313
					L126.631,2.451z"/>
			</defs>
			<clipPath id="SVGID_2_">
				<use xlink:href="#SVGID_1_"  overflow="visible"/>
			</clipPath>
			
				<linearGradient id="SVGID_3_" gradientUnits="userSpaceOnUse" x1="-3880.4854" y1="366.5938" x2="-4072.8945" y2="366.5937" gradientTransform="matrix(-1 0 0 -1 -3880.4844 453.2246)">
				<stop  offset="0.0056" style="stop-color:#95A2C8"/>
				<stop  offset="0.073" style="stop-color:#5F6887"/>
				<stop  offset="0.0961" style="stop-color:#616985"/>
				<stop  offset="0.1973" style="stop-color:#62687C"/>
				<stop  offset="0.2969" style="stop-color:#626774"/>
				<stop  offset="0.3934" style="stop-color:#61656F"/>
				<stop  offset="0.4831" style="stop-color:#61656D"/>
				<stop  offset="0.5156" style="stop-color:#5A606B"/>
				<stop  offset="0.5547" style="stop-color:#575E6A"/>
				<stop  offset="0.618" style="stop-color:#555D6A"/>
				<stop  offset="0.6347" style="stop-color:#585F6C"/>
				<stop  offset="0.6514" style="stop-color:#616976"/>
				<stop  offset="0.6681" style="stop-color:#717784"/>
				<stop  offset="0.6846" style="stop-color:#898D99"/>
				<stop  offset="0.691" style="stop-color:#9598A4"/>
				<stop  offset="0.8315" style="stop-color:#8590A1"/>
				<stop  offset="0.875" style="stop-color:#818B9D"/>
				<stop  offset="0.9331" style="stop-color:#767F90"/>
				<stop  offset="0.9993" style="stop-color:#656C7B"/>
				<stop  offset="1" style="stop-color:#656C7B"/>
			</linearGradient>
			<polygon clip-path="url(#SVGID_2_)" fill="url(#SVGID_3_)" points="0,57.767 192.409,57.752 192.409,115.496 0,115.51 			"/>
		</g>
		<linearGradient id="SVGID_4_" gradientUnits="userSpaceOnUse" x1="96.2798" y1="28.707" x2="96.2798" y2="86.9087">
			<stop  offset="0" style="stop-color:#4D555A"/>
			<stop  offset="0.0824" style="stop-color:#4F575D"/>
			<stop  offset="0.1353" style="stop-color:#565E64"/>
			<stop  offset="0.1799" style="stop-color:#626A70"/>
			<stop  offset="0.2199" style="stop-color:#717B81"/>
			<stop  offset="0.2568" style="stop-color:#858F95"/>
			<stop  offset="0.2909" style="stop-color:#9FA9AF"/>
			<stop  offset="0.309" style="stop-color:#B1BAC0"/>
			<stop  offset="0.5225" style="stop-color:#FFFFFF"/>
			<stop  offset="0.5385" style="stop-color:#FFFFFF"/>
			<stop  offset="0.55" style="stop-color:#F3F5F7"/>
			<stop  offset="0.6005" style="stop-color:#D8DFE3"/>
			<stop  offset="0.647" style="stop-color:#CAD2D8"/>
			<stop  offset="0.6854" style="stop-color:#C4CED4"/>
			<stop  offset="0.8714" style="stop-color:#91999F"/>
			<stop  offset="0.9835" style="stop-color:#787F84"/>
			<stop  offset="0.9848" style="stop-color:#767E84"/>
			<stop  offset="0.9888" style="stop-color:#727D84"/>
			<stop  offset="1" style="stop-color:#727D84"/>
		</linearGradient>
		<path fill="url(#SVGID_4_)" d="M51.721,78.482c-11.41-5.211-18.626-12.45-18.649-20.675l0,0
			c0.023-8.225,7.239-15.461,18.649-20.672l0,0c11.437-5.218,27.173-8.428,44.56-8.428l0,0v0.469v0.469
			c-17.272,0-32.908,3.199-44.185,8.346l0,0c-11.3,5.149-18.132,12.229-18.109,19.817l0,0c-0.022,7.589,6.81,14.668,18.109,19.817
			l0,0c11.277,5.146,26.912,8.346,44.185,8.346l0,0c17.272,0,32.912-3.199,44.188-8.346l0,0
			c11.296-5.149,18.133-12.229,18.109-19.817l0,0c0.023-7.589-6.813-14.668-18.109-19.817l0,0
			c-11.276-5.147-26.916-8.346-44.188-8.346l0,0v-0.469v-0.469c17.387,0,33.127,3.21,44.56,8.428l0,0
			c11.414,5.211,18.626,12.448,18.648,20.672l0,0c-0.022,8.225-7.234,15.464-18.648,20.675l0,0
			c-11.433,5.215-27.173,8.426-44.56,8.426l0,0C78.894,86.908,63.158,83.697,51.721,78.482L51.721,78.482z"/>
		<path d="M116.429,20.471c43.133,4.399,75.51,22.401,75.51,43.947v0.009c0.133,26.51-45.108,50.667-110.996,50.267
			c-6.119-0.036-8.972-0.196-14.762-0.59c-0.073-0.005-0.174-0.025-0.229-0.157c-0.069-0.153,0.018-0.271,0.018-0.271l12.347-17.885
			c5.04,0.554,10.257,0.846,15.608,0.846c41.455,0,75.066-17.53,75.066-39.151v-0.048c0-15.676-24.123-28.767-56.688-32.08
			L116.429,20.471z"/>
		<path d="M75.358,94.775C32.221,90.377,0.42,72.423,0.42,50.879v-0.011C0.563,23.016,48.821,0.083,108.211,0.485
			c6.101,0.045,12.077-0.066,17.899,0.432c0.352,0.025,0.462,0.188,0.503,0.283c0.087,0.204-0.398,0.867-0.398,0.867l-12.26,17.446
			c-5.035-0.553-10.258-0.848-15.604-0.848c-41.459,0-75.062,17.528-75.062,39.152v0.05c0,15.676,23.803,28.723,56.367,32.038
			L75.358,94.775z"/>
		<path d="M112.162,25.174c0,0-0.077,0.167-0.05,0.295c0.031,0.124,0.242,0.133,0.356,0.144
			c32.396,3.368,56.522,16.324,56.522,31.945v0.112c0,21.622-33.603,39.147-75.062,39.147c-5.351,0-10.65-0.331-15.686-0.89
			l1.843-5.52c0,0,0.105-0.242-0.004-0.375c-0.078-0.091-0.219-0.125-0.407-0.146c-32.281-3.405-56.381-16.432-56.381-32.016
			l-0.005-0.055c0-21.624,33.603-39.152,75.062-39.152c5.346,0,10.568,0.295,15.604,0.848L112.162,25.174z M96.321,29.194
			c-34.659,0-62.755,12.823-62.755,28.634c0,15.813,28.097,28.634,62.755,28.634c34.659,0,62.751-12.82,62.751-28.634
			C159.072,42.017,130.98,29.194,96.321,29.194z"/>
		<path d="M112.235,25.268c0.078-0.025,0.151-0.011,0.151-0.011l4.303-4.799c0,0,9.544-18.045,9.645-18.212
			c0.521-0.853,0.252-1.125,0.283-1.004c0.032,0.121-0.434,0.857-0.434,0.857l-11.867,16.879l-2.2,6.37
			C112.116,25.348,112.158,25.291,112.235,25.268z"/>
		<path d="M79.982,90.87c-0.435,1.551-1.655,4.863-1.655,4.863l-12.26,17.744L75.5,95.494c0,0,0.343-0.646-0.114-0.709
			c-0.302-0.044,3.855-3.631,3.992-3.794c0.06-0.068,0.274-0.36,0.21-0.571c-0.014-0.046,0.462-0.309,0.476-0.295
			C80.124,90.221,80.133,90.445,79.982,90.87z"/>
		<linearGradient id="SVGID_5_" gradientUnits="userSpaceOnUse" x1="112.3447" y1="37.0049" x2="187.8643" y2="37.0049">
			<stop  offset="0" style="stop-color:#A5A8B1"/>
			<stop  offset="0.1041" style="stop-color:#ADB0B8"/>
			<stop  offset="0.2792" style="stop-color:#C6C8CF"/>
			<stop  offset="0.5027" style="stop-color:#EFF0F2"/>
			<stop  offset="0.5549" style="stop-color:#FFFFFF"/>
		</linearGradient>
		<path fill="url(#SVGID_5_)" d="M112.345,25.298l4.336-4.843c0,0,55.873,4.333,71.184,33.1c0,0-28.513-14.867-40.266-19.394
			C137.456,30.248,129.082,27.383,112.345,25.298z"/>
		<linearGradient id="SVGID_6_" gradientUnits="userSpaceOnUse" x1="171.6143" y1="39.9912" x2="164.2286" y2="60.2832">
			<stop  offset="0" style="stop-color:#FFFFFF"/>
			<stop  offset="0.4286" style="stop-color:#A5A8B1"/>
			<stop  offset="0.4927" style="stop-color:#9CA0A9"/>
			<stop  offset="0.6007" style="stop-color:#888B94"/>
			<stop  offset="0.7393" style="stop-color:#686B74"/>
			<stop  offset="0.9011" style="stop-color:#383941"/>
			<stop  offset="1" style="stop-color:#000000"/>
		</linearGradient>
		<path fill="url(#SVGID_6_)" d="M145.509,33.118c0,0,23.428,8.593,26.153,23.773c0,0,8.944,3.266,17.816,12.583
			c0.068,0.066,3.887-10.519-4.23-19.506C172.261,35.578,145.509,33.118,145.509,33.118z"/>
		<linearGradient id="SVGID_7_" gradientUnits="userSpaceOnUse" x1="51.874" y1="91.1377" x2="69.5421" y2="-9.0631">
			<stop  offset="0.0056" style="stop-color:#7C818F"/>
			<stop  offset="0.1429" style="stop-color:#D8E2E8"/>
			<stop  offset="0.2088" style="stop-color:#959CA7"/>
			<stop  offset="0.3414" style="stop-color:#BBC1C9"/>
			<stop  offset="0.5393" style="stop-color:#FFFFFF"/>
			<stop  offset="0.6517" style="stop-color:#EBEEF4"/>
			<stop  offset="0.8652" style="stop-color:#BAC2CE"/>
			<stop  offset="1" style="stop-color:#A7A9AC"/>
			<stop  offset="1" style="stop-color:#BAC0CD"/>
		</linearGradient>
		<path fill="url(#SVGID_7_)" d="M75.358,94.775C32.221,90.377,0.42,72.423,0.42,50.879v-0.011
			C0.563,23.016,48.821,0.083,108.211,0.485c6.101,0.045,12.077-0.066,17.899,0.432c0.352,0.025,0.462,0.188,0.503,0.283
			c0.087,0.204-0.398,0.867-0.398,0.867l-12.26,17.446c-5.035-0.553-10.258-0.848-15.604-0.848
			c-41.459,0-75.062,17.528-75.062,39.152v0.05c0,15.676,23.803,28.723,56.367,32.038L75.358,94.775z"/>
		<linearGradient id="SVGID_8_" gradientUnits="userSpaceOnUse" x1="96.1411" y1="96.8174" x2="96.1411" y2="18.6655">
			<stop  offset="0" style="stop-color:#FFFFFF"/>
			<stop  offset="0.2088" style="stop-color:#DDE0E9"/>
			<stop  offset="0.456" style="stop-color:#575760"/>
			<stop  offset="0.5162" style="stop-color:#383B48"/>
			<stop  offset="0.5997" style="stop-color:#12151C"/>
			<stop  offset="0.6429" style="stop-color:#000000"/>
		</linearGradient>
		<path fill="url(#SVGID_8_)" d="M112.162,25.174c0,0-0.077,0.167-0.05,0.295c0.031,0.124,0.242,0.133,0.356,0.144
			c32.396,3.368,56.522,16.324,56.522,31.945v0.112c0,21.622-33.603,39.147-75.062,39.147c-5.351,0-10.65-0.331-15.686-0.89
			l1.843-5.52c0,0,0.105-0.242-0.004-0.375c-0.078-0.091-0.219-0.125-0.407-0.146c-32.281-3.405-56.381-16.432-56.381-32.016
			l-0.005-0.055c0-21.624,33.603-39.152,75.062-39.152c5.346,0,10.568,0.295,15.604,0.848L112.162,25.174z M96.321,29.194
			c-34.659,0-62.755,12.823-62.755,28.634c0,15.813,28.097,28.634,62.755,28.634c34.659,0,62.751-12.82,62.751-28.634
			C159.072,42.017,130.98,29.194,96.321,29.194z"/>
		<linearGradient id="SVGID_9_" gradientUnits="userSpaceOnUse" x1="116.7373" y1="12.3242" x2="122.0304" y2="14.2508">
			<stop  offset="0" style="stop-color:#FFFFFF"/>
			<stop  offset="0.0275" style="stop-color:#3D434B"/>
			<stop  offset="0.0997" style="stop-color:#3D434B"/>
			<stop  offset="0.5385" style="stop-color:#3D434B"/>
			<stop  offset="0.9286" style="stop-color:#38393F"/>
			<stop  offset="1" style="stop-color:#111620"/>
		</linearGradient>
		<path fill="url(#SVGID_9_)" d="M112.235,25.268c0.078-0.025,0.151-0.011,0.151-0.011l4.303-4.799c0,0,9.544-18.045,9.645-18.212
			c0.521-0.853,0.252-1.125,0.283-1.004c0.032,0.121-0.434,0.857-0.434,0.857l-11.867,16.879l-2.2,6.37
			C112.116,25.348,112.158,25.291,112.235,25.268z"/>
		<linearGradient id="SVGID_10_" gradientUnits="userSpaceOnUse" x1="63.3579" y1="110.4697" x2="82.7009" y2="93.0533">
			<stop  offset="0.6209" style="stop-color:#838F97"/>
			<stop  offset="1" style="stop-color:#C4CED4"/>
		</linearGradient>
		<path fill="url(#SVGID_10_)" d="M79.982,90.87c-0.435,1.551-1.655,4.863-1.655,4.863l-12.26,17.744L75.5,95.494
			c0,0,0.343-0.646-0.114-0.709c-0.302-0.044,3.855-3.631,3.992-3.794c0.06-0.068,0.274-0.36,0.21-0.571
			c-0.014-0.046,0.462-0.309,0.476-0.295C80.124,90.221,80.133,90.445,79.982,90.87z"/>
		<path d="M163.801,49.789c-1.399,0-4.802,6.626-4.802,6.626c-1.614-15.155-29.062-27.221-62.678-27.221
			c-33.644,0-61.1,12.082-62.682,27.253c0,0-3.759-8.483-5.534-8.353c-1.774,0.13-4.056,4.137-4.056,4.137
			c5.195-18.976,36.479-33.566,74.302-33.566c5.346,0,10.568,0.295,15.604,0.848l-1.793,5.661c0,0-0.077,0.167-0.05,0.295
			c0.031,0.124,0.242,0.133,0.356,0.144c28.966,3.012,51.268,13.756,55.663,27.168C168.132,52.782,166.211,49.789,163.801,49.789z"
			/>
		
			<radialGradient id="SVGID_11_" cx="413.8945" cy="335.1279" r="87.3999" gradientTransform="matrix(0.4231 0 0 0.4348 -56.8805 -41.7427)" gradientUnits="userSpaceOnUse">
			<stop  offset="0.4835" style="stop-color:#525962"/>
			<stop  offset="0.8077" style="stop-color:#38393F"/>
			<stop  offset="1" style="stop-color:#202124"/>
		</radialGradient>
		<path fill="url(#SVGID_11_)" d="M149.647,103.396c-21.517,8.534-54.666,12.08-82.593,10.189c-0.105-0.005-0.151-0.053-0.174-0.107
			c-0.023-0.058,0.041-0.177,0.041-0.177l11.817-15.969c0,0,0.192,0.06,0.571,0.094c3.549,0.32,16.157,2.127,34.719-0.423
			c52.434-7.198,36.003,7.696,55.53-3.116C170.486,93.372,155.821,100.947,149.647,103.396z"/>
		<path d="M75.377,94.785c0,0-49.521-5.182-68.421-28.7c-9.59-11.943-3.8-23.977-3.8-23.977S0.617,51.49,3.407,55.921
			c2.79,4.431,6.549,0.309,9.892-1.891c4.756-3.125,10.907-5.666,10.907-5.666S20.697,65.252,30.04,72.21
			c10.143,7.558,21.758,14.192,49.658,18.101L75.377,94.785z"/>
		
			<radialGradient id="SVGID_12_" cx="252.3662" cy="270.1357" r="54.9757" gradientTransform="matrix(0.4231 0 0 0.4348 -56.8805 -41.7427)" gradientUnits="userSpaceOnUse">
			<stop  offset="0.4835" style="stop-color:#525962"/>
			<stop  offset="0.7857" style="stop-color:#38393F"/>
		</radialGradient>
		<path fill="url(#SVGID_12_)" d="M21.447,58.987c0,0-1.458,5.664,5.104,14.46c4.87,6.528,18.022,15.022,32.907,18.178
			c9.892,2.095,19.024-0.521,19.024-0.521s-33.406-4.369-44.71-13.04C24.786,71.172,21.603,63.867,21.447,58.987z"/>
		<linearGradient id="SVGID_13_" gradientUnits="userSpaceOnUse" x1="77.4014" y1="92.5244" x2="77.7421" y2="92.8478">
			<stop  offset="0.3516" style="stop-color:#000000"/>
			<stop  offset="0.362" style="stop-color:#15171A"/>
			<stop  offset="0.4186" style="stop-color:#4A505A"/>
			<stop  offset="0.4791" style="stop-color:#69707A"/>
			<stop  offset="0.5427" style="stop-color:#838B95"/>
			<stop  offset="0.6101" style="stop-color:#99A1AA"/>
			<stop  offset="0.6827" style="stop-color:#ACB4BC"/>
			<stop  offset="0.7631" style="stop-color:#B9C3C9"/>
			<stop  offset="0.8575" style="stop-color:#C2CBD1"/>
			<stop  offset="1" style="stop-color:#C4CED4"/>
		</linearGradient>
		<path fill="url(#SVGID_13_)" d="M75.354,94.785c0,0,4.102-4.529,4.18-4.44c0.279,0.32-0.096,0.69-0.096,0.69
			s-3.8,4.067-3.805,4.004C75.597,94.769,75.354,94.785,75.354,94.785z"/>
		<linearGradient id="SVGID_14_" gradientUnits="userSpaceOnUse" x1="78.3999" y1="61.1592" x2="169.499" y2="61.1592">
			<stop  offset="0.0165" style="stop-color:#F1F1F2"/>
			<stop  offset="0.7637" style="stop-color:#FFFFFF"/>
			<stop  offset="0.7774" style="stop-color:#F7F9F9"/>
			<stop  offset="0.7915" style="stop-color:#EAEAEA"/>
			<stop  offset="0.8059" style="stop-color:#D6D7D8"/>
			<stop  offset="0.8132" style="stop-color:#CACBCC"/>
			<stop  offset="1" style="stop-color:#808080"/>
		</linearGradient>
		<path fill="url(#SVGID_14_)" d="M78.4,96.001l0.201-0.087C83.618,96.466,88.68,96.5,94.012,96.5l0,0
			c20.666,0.004,39.369-4.37,52.873-11.414l0,0c13.321-6.949,21.462-16.438,21.677-26.8l-0.019-0.49
			c0.009-7.566-5.903-14.659-15.992-20.279l0,0c-10.074-5.611-23.848-10.253-40.082-11.904c0,0-0.439,0.007-0.356-0.26
			c0.022-0.078,0.191-0.103,0.191-0.105c16.331,1.66,30.457,5.753,40.687,11.446l0,0c10.01,5.577,16.262,12.695,16.509,20.622
			l-0.01,0.553c-0.027,11.069-8.556,20.94-22.192,28.054l0,0c-13.669,7.127-32.432,11.148-53.221,11.148l0,0
			c-5.369,0-10.271-0.354-15.32-0.91L78.4,96.001z"/>
		<path fill="#FFFFFF" d="M116.831,20.705c0,0,0.032-0.037,0.041-0.053c5.03,0.517,25.688,2.76,45.406,11.295
			C186.734,42.531,189.515,57.7,189.515,57.7s-1.998-8.748-22.765-21.679C147.882,24.276,116.831,20.705,116.831,20.705z"/>
		<path fill="#FFFFFF" d="M79.607,90.529l-0.124,0.094c0.096-0.082,0.201-0.276-0.105-0.35c-16.207-1.678-30.521-5.52-40.682-11.176
			l0,0C28.682,73.519,22.403,66.373,22.156,58.45l-0.005-0.519c0.028-11.069,8.598-20.952,22.234-28.063l0,0
			c13.664-7.127,32.491-11.517,53.284-11.52l0,0c5.364,0,10.655,0.258,15.704,0.816l0.736,0.096l-0.526,0.764
			c0.115-0.464-0.306-0.583-0.384-0.595c-4.952-0.526-10.262-0.542-15.512-0.542l0,0c-20.665,0-39.387,4.772-52.887,11.814l0,0
			c-13.331,6.951-21.521,16.458-21.731,26.826l0,0l0.009,0.468c-0.014,7.564,5.958,14.657,16.046,20.274l0,0
			c10.079,5.613,24.187,9.953,40.371,11.6L79.607,90.529z"/>
		<linearGradient id="SVGID_15_" gradientUnits="userSpaceOnUse" x1="107.459" y1="13.1763" x2="39.1552" y2="81.48">
			<stop  offset="0" style="stop-color:#FFFFFF"/>
			<stop  offset="0.2078" style="stop-color:#F8FAFB"/>
			<stop  offset="0.3397" style="stop-color:#EFF0F2"/>
			<stop  offset="0.4504" style="stop-color:#DFE1E5"/>
			<stop  offset="0.5489" style="stop-color:#CACDD4"/>
			<stop  offset="0.5659" style="stop-color:#C6CAD1"/>
			<stop  offset="0.7143" style="stop-color:#BABAC4"/>
			<stop  offset="0.8549" style="stop-color:#B8B9C2"/>
			<stop  offset="0.9056" style="stop-color:#B3B3BD"/>
			<stop  offset="0.9417" style="stop-color:#A9A9B3"/>
			<stop  offset="0.9709" style="stop-color:#9B9BA6"/>
			<stop  offset="0.9956" style="stop-color:#898A94"/>
			<stop  offset="1" style="stop-color:#868691"/>
		</linearGradient>
		<path fill="url(#SVGID_15_)" d="M80.069,90.134c-0.046-0.004-0.352,0.279-0.476,0.31c-0.055-0.14-0.124-0.195-0.224-0.202
			c-16.188-1.845-29.725-5.471-39.913-11.144l0,0c-10.015-5.579-16.275-12.702-16.522-20.625l-0.023-0.542
			c0.032-11.069,8.597-20.952,22.234-28.063l0,0c13.669-7.127,32.496-11.517,53.285-11.52l0,0c5.368,0,9.667,0.21,14.721,0.769
			c0,0,0.302,0.096,0.476,0.226c0.055,0.039-0.188,0.13-0.188,0.13c-5.021-0.553-9.654-0.585-14.99-0.585l0,0
			c-20.661,0-39.388,4.772-52.887,11.814l0,0C32.235,37.654,24.045,47.162,23.83,57.529l0,0v0.478
			c-0.009,7.562,5.968,14.648,16.06,20.265l0,0c9.992,5.568,23.501,9.912,39.562,11.593C79.95,89.908,80.069,90.134,80.069,90.134z"
			/>
		<g>
			<defs>
				<filter id="Adobe_OpacityMaskFilter" filterUnits="userSpaceOnUse" x="22.806" y="0.631" width="103.734" height="20.549">
					<feFlood  style="flood-color:white;flood-opacity:1" result="back"/>
					<feBlend  in="SourceGraphic" in2="back" mode="normal"/>
				</filter>
			</defs>

			<g mask="url(#SVGID_16_)">
				<path fill="#FFFFFF" d="M22.806,21.18c0,0,11.492-9.537,38.121-15.583c26.628-6.048,54.561-5.47,65.614-3.965
					c0,0-32.716-2.083-62.01,4.301C36.36,12.073,22.806,21.18,22.806,21.18z"/>
			</g>
		</g>
		<linearGradient id="SVGID_17_" gradientUnits="userSpaceOnUse" x1="113.0889" y1="10.6055" x2="126.3066" y2="10.6055">
			<stop  offset="0.0056" style="stop-color:#FFFFFF"/>
			<stop  offset="0.1987" style="stop-color:#F7F7F9"/>
			<stop  offset="0.3971" style="stop-color:#E8EAEE"/>
			<stop  offset="0.598" style="stop-color:#D2D5DB"/>
			<stop  offset="0.7993" style="stop-color:#B6BBC4"/>
			<stop  offset="1" style="stop-color:#959BA6"/>
		</linearGradient>
		<path fill="url(#SVGID_17_)" d="M114.005,18.823l12.302-17.012c0,0-0.051,0.165-0.123,0.291
			c-0.028,0.048-11.821,16.87-12.009,17.148c-0.271,0.417-1.372-0.167-1.016-0.139C113.686,19.147,114.005,18.823,114.005,18.823z"
			/>
		<linearGradient id="SVGID_18_" gradientUnits="userSpaceOnUse" x1="112.1025" y1="22.1309" x2="114.3896" y2="22.1309">
			<stop  offset="0.0056" style="stop-color:#4B5D75"/>
			<stop  offset="0.0208" style="stop-color:#647388"/>
			<stop  offset="0.0469" style="stop-color:#8894A4"/>
			<stop  offset="0.0762" style="stop-color:#A8B1BD"/>
			<stop  offset="0.1087" style="stop-color:#C4CAD1"/>
			<stop  offset="0.1454" style="stop-color:#DADDE2"/>
			<stop  offset="0.1883" style="stop-color:#EBEDEF"/>
			<stop  offset="0.2413" style="stop-color:#F6F7F8"/>
			<stop  offset="0.3156" style="stop-color:#FDFDFE"/>
			<stop  offset="0.522" style="stop-color:#FFFFFF"/>
			<stop  offset="0.563" style="stop-color:#FDFDFD"/>
			<stop  offset="0.5852" style="stop-color:#F5F5F5"/>
			<stop  offset="0.6028" style="stop-color:#E7E7E7"/>
			<stop  offset="0.6044" style="stop-color:#E6E6E6"/>
			<stop  offset="1" style="stop-color:#FFFFFF"/>
		</linearGradient>
		<path fill="url(#SVGID_18_)" d="M112.103,25.398c0,0,1.989-5.814,2.287-6.535c0.004-0.011-0.439,0.711-0.741,0.969
			C113.626,19.849,112.103,25.398,112.103,25.398z"/>
		<linearGradient id="SVGID_19_" gradientUnits="userSpaceOnUse" x1="116.6895" y1="10.6895" x2="126.9268" y2="10.6895">
			<stop  offset="0.0112" style="stop-color:#A8AEBA"/>
			<stop  offset="0.0549" style="stop-color:#9098A3"/>
			<stop  offset="0.1073" style="stop-color:#7C848F"/>
			<stop  offset="0.1675" style="stop-color:#6D747F"/>
			<stop  offset="0.2379" style="stop-color:#616872"/>
			<stop  offset="0.3248" style="stop-color:#585F69"/>
			<stop  offset="0.4469" style="stop-color:#535A64"/>
			<stop  offset="0.7857" style="stop-color:#525962"/>
			<stop  offset="0.8843" style="stop-color:#535A64"/>
			<stop  offset="0.9198" style="stop-color:#565E68"/>
			<stop  offset="0.9451" style="stop-color:#5C6470"/>
			<stop  offset="0.9656" style="stop-color:#636B7B"/>
			<stop  offset="0.9829" style="stop-color:#6B7488"/>
			<stop  offset="0.9982" style="stop-color:#747E97"/>
			<stop  offset="1" style="stop-color:#757F99"/>
		</linearGradient>
		<path fill="url(#SVGID_19_)" d="M116.689,20.458c9.109-17.169,9.055-17.19,9.645-18.212c0.714-1.24,0.032-1.42,0.215-1.288
			c0.6,0.441,0.307,1.004,0.307,1.004l-9.622,18.285L116.689,20.458z"/>
		<linearGradient id="SVGID_20_" gradientUnits="userSpaceOnUse" x1="65.9565" y1="104.1221" x2="79.3647" y2="104.1221">
			<stop  offset="0.0714" style="stop-color:#787B81"/>
			<stop  offset="0.1854" style="stop-color:#9DA0A8"/>
			<stop  offset="0.2005" style="stop-color:#93969E"/>
			<stop  offset="0.2341" style="stop-color:#83858C"/>
			<stop  offset="0.2727" style="stop-color:#76787F"/>
			<stop  offset="0.3189" style="stop-color:#6D6F75"/>
			<stop  offset="0.3801" style="stop-color:#686A70"/>
			<stop  offset="0.5169" style="stop-color:#66686E"/>
			<stop  offset="0.5739" style="stop-color:#67696F"/>
			<stop  offset="0.5944" style="stop-color:#6C6E75"/>
			<stop  offset="0.6089" style="stop-color:#75777E"/>
			<stop  offset="0.6099" style="stop-color:#75787E"/>
			<stop  offset="0.8483" style="stop-color:#9DA0A8"/>
			<stop  offset="1" style="stop-color:#FFFFFF"/>
		</linearGradient>
		<path fill="url(#SVGID_20_)" d="M66.066,113.478l11.812-17.291c0,0,0.686-1.013,0.892-1.63c0-0.01-0.375,0.976-0.219,1.269
			c0.27,0.276,0.361,0.377,0.814,0.499c0,0-0.851-0.146-1.253,0.413c-2.278,3.174-12.165,17.003-12.155,16.95
			C65.97,113.633,66.066,113.478,66.066,113.478z"/>
		<linearGradient id="SVGID_21_" gradientUnits="userSpaceOnUse" x1="112.4004" y1="22.7485" x2="117.2246" y2="22.7485">
			<stop  offset="0.489" style="stop-color:#A5A8B1"/>
			<stop  offset="0.9396" style="stop-color:#A8AEBA"/>
		</linearGradient>
		<polygon fill="url(#SVGID_21_)" points="116.872,20.579 112.4,25.257 113.018,24.481 116.557,20.482 117.225,20.24 		"/>
		<linearGradient id="SVGID_22_" gradientUnits="userSpaceOnUse" x1="78.313" y1="61.0654" x2="169.499" y2="61.0654">
			<stop  offset="0.2418" style="stop-color:#FFFFFF"/>
			<stop  offset="0.3131" style="stop-color:#F7F9F9"/>
			<stop  offset="0.387" style="stop-color:#EAEAEA"/>
			<stop  offset="0.4618" style="stop-color:#D6D7D8"/>
			<stop  offset="0.5" style="stop-color:#CACBCC"/>
			<stop  offset="0.6538" style="stop-color:#808080"/>
		</linearGradient>
		<path fill="url(#SVGID_22_)" d="M78.313,95.745c5.03,0.549,10.367,0.755,15.699,0.755l0,0c20.666,0.004,39.369-4.37,52.873-11.414
			l0,0c13.321-6.949,21.452-16.15,21.667-26.515l-0.009-0.775c0.009-7.566-5.903-14.659-15.992-20.279l0,0
			c-10.074-5.611-23.894-10.29-40.128-11.94l-0.022-0.323c16.325,1.66,30.36,5.746,40.59,11.439l0,0
			c10.01,5.577,16.262,12.695,16.509,20.622l-0.014,0.464c-0.032,11.071-8.639,20.796-22.275,27.909l0,0
			c-13.664,7.125-32.331,11.188-53.12,11.188l0,0c-5.364,0-10.559-0.397-15.622-0.951L78.313,95.745z"/>
		<path fill="#FFFFFF" d="M78.532,96.043l0.682-0.025c5.017,0.553,10.225,0.679,15.557,0.679l0,0
			c20.67,0.003,39.374-4.369,52.874-11.414l0,0c13.325-6.951,21.512-16.458,21.727-26.823l0,0l-0.014-0.469
			c0.009-7.566-5.954-14.659-16.043-20.276l0,0c-10.074-5.611-24.195-10.401-40.43-12.052l0.037-0.24
			c16.33,1.66,30.603,5.773,40.827,11.467l0,0c10.011,5.579,16.248,12.695,16.495,20.622l0.009,0.553
			c-0.031,11.071-8.561,20.942-22.197,28.056l0,0c-13.669,7.127-32.427,11.146-53.221,11.149l0,0
			c-5.369,0-11.304-0.506-16.353-1.062L78.532,96.043z"/>
	</g>
</g>
</svg>
